<svg width="84" height="84" viewBox="0 0 84 84" fill="none" xmlns="http://www.w3.org/2000/svg">
<path d="M46.8192 22.8442C44.7271 19.0521 39.2769 19.0519 37.1845 22.8438L18.6926 56.3548C16.6691 60.0218 19.3216 64.5151 23.5099 64.5151H60.4901C64.6782 64.5151 67.3307 60.0222 65.3076 56.3552L46.8192 22.8442ZM44.0017 54.5126C44.0017 55.6176 43.1059 56.5133 42.001 56.5133C40.896 56.5133 40.0002 55.6176 40.0002 54.5126C40.0002 53.4076 40.896 52.5119 42.001 52.5119C43.1059 52.5119 44.0017 53.4076 44.0017 54.5126ZM40.5004 48.0102V35.0055C40.5004 34.1768 41.1722 33.5049 42.001 33.5049C42.8297 33.5049 43.5015 34.1768 43.5015 35.0055V48.0102C43.5015 48.839 42.8297 49.5108 42.001 49.5108C41.1722 49.5108 40.5004 48.839 40.5004 48.0102Z" fill="#FF0204"/>
</svg>
